<svg viewBox="0 0 24 24" fill="none" xmlns="http://www.w3.org/2000/svg">
<path d="M5.15543 6.86865C5.1551 6.86877 5.15257 6.86761 5.14882 6.86478C5.15387 6.86711 5.15575 6.86852 5.15543 6.86865Z" fill="currentColor"/>
<path d="M5.13494 6.8509C5.13211 6.84714 5.13094 6.84461 5.13107 6.84429C5.13119 6.84397 5.13261 6.84584 5.13494 6.8509Z" fill="currentColor"/>
<path d="M5.13107 12.1551C5.13094 12.1548 5.13211 12.1523 5.13494 12.1485C5.13261 12.1536 5.13119 12.1555 5.13107 12.1551Z" fill="currentColor"/>
<path d="M5.14882 12.1347C5.15257 12.1318 5.1551 12.1307 5.15543 12.1308C5.15575 12.1309 5.15387 12.1323 5.14882 12.1347Z" fill="currentColor"/>
<path d="M11.1554 6.86865C11.1551 6.86877 11.1526 6.86761 11.1488 6.86478C11.1539 6.86711 11.1558 6.86852 11.1554 6.86865Z" fill="currentColor"/>
<path d="M11.1349 6.8509C11.1321 6.84714 11.1309 6.84461 11.1311 6.84429C11.1312 6.84397 11.1326 6.84584 11.1349 6.8509Z" fill="currentColor"/>
<path d="M11.1311 12.1551C11.1309 12.1548 11.1321 12.1523 11.1349 12.1485C11.1326 12.1536 11.1312 12.1555 11.1311 12.1551Z" fill="currentColor"/>
<path d="M11.1538 12.1314C11.1527 12.132 11.1509 12.133 11.1488 12.1347C11.1539 12.1323 11.1558 12.1309 11.1554 12.1308C11.1553 12.1307 11.1547 12.1309 11.1538 12.1314Z" fill="currentColor"/>
<path d="M17.1554 6.86865C17.1551 6.86877 17.1526 6.86761 17.1488 6.86478C17.1539 6.86711 17.1558 6.86852 17.1554 6.86865Z" fill="currentColor"/>
<path d="M17.1349 6.8509L17.1322 6.84692C17.1314 6.84542 17.131 6.84448 17.1311 6.84429C17.1312 6.84397 17.1326 6.84584 17.1349 6.8509Z" fill="currentColor"/>
<path d="M17.1311 12.1551C17.1309 12.1548 17.1321 12.1523 17.1349 12.1485C17.1326 12.1536 17.1312 12.1555 17.1311 12.1551Z" fill="currentColor"/>
<path d="M17.1488 12.1347C17.1526 12.1318 17.1551 12.1307 17.1554 12.1308C17.1558 12.1309 17.1539 12.1323 17.1488 12.1347Z" fill="currentColor"/>
<path fill-rule="evenodd" clip-rule="evenodd" d="M9.00118 2.509C8.74606 2.34917 8.46837 2.27837 8.20505 2.24297C7.87883 2.19911 7.47896 2.19917 7.04802 2.19922L4.95434 2.19922C4.5234 2.19917 4.12353 2.19911 3.79731 2.24297C3.43629 2.29151 3.04825 2.40657 2.72839 2.72644C2.40853 3.0463 2.29346 3.43433 2.24493 3.79536C2.20107 4.12158 2.20112 4.52144 2.20118 4.95239L2.20118 19.0461C2.20112 19.477 2.20107 19.8769 2.24493 20.2031C2.29346 20.5641 2.40853 20.9522 2.72839 21.272C3.04825 21.5919 3.43629 21.7069 3.79731 21.7555C4.12353 21.7993 4.52339 21.7993 4.95433 21.7992H7.04803C7.47897 21.7993 7.87883 21.7993 8.20505 21.7555C8.46837 21.7201 8.74606 21.6493 9.00119 21.4895C9.25631 21.6493 9.53399 21.7201 9.79731 21.7555C10.1235 21.7993 10.5234 21.7993 10.9543 21.7992H13.048C13.479 21.7993 13.8788 21.7993 14.2051 21.7555C14.4684 21.7201 14.7461 21.6493 15.0012 21.4895C15.2563 21.6493 15.534 21.7201 15.7973 21.7555C16.1235 21.7993 16.5234 21.7993 16.9543 21.7992H19.048C19.479 21.7993 19.8788 21.7993 20.2051 21.7555C20.5661 21.7069 20.9541 21.5919 21.274 21.272C21.5938 20.9522 21.7089 20.5641 21.7574 20.2031C21.8013 19.8769 21.8012 19.477 21.8012 19.0461V4.95239C21.8012 4.52144 21.8013 4.12158 21.7574 3.79536C21.7089 3.43433 21.5938 3.0463 21.274 2.72643C20.9541 2.40657 20.5661 2.29151 20.2051 2.24297C19.8788 2.19911 19.479 2.19917 19.048 2.19922L16.9543 2.19922C16.5234 2.19917 16.1235 2.19911 15.7973 2.24297C15.534 2.27837 15.2563 2.34917 15.0012 2.509C14.7461 2.34917 14.4684 2.27837 14.2051 2.24297C13.8788 2.19911 13.479 2.19917 13.048 2.19922L10.9543 2.19922C10.5234 2.19917 10.1235 2.19911 9.79731 2.24297C9.53399 2.27837 9.25631 2.34917 9.00118 2.509ZM4.99067 6.82919C4.78406 6.80141 4.49402 6.79972 4 6.79972L3 6.79972V5.19972L4.04684 5.19971C4.47778 5.19965 4.87765 5.1996 5.20387 5.24346C5.56489 5.292 5.95293 5.40706 6.27279 5.72692C6.59265 6.04678 6.70772 6.43482 6.75626 6.79585C6.80011 7.12206 6.80006 7.52192 6.8 7.95286L6.8 11.0466C6.80006 11.4775 6.80011 11.8774 6.75626 12.2036C6.70772 12.5646 6.59265 12.9526 6.27279 13.2725C5.95293 13.5924 5.5649 13.7074 5.20387 13.756C4.87766 13.7998 4.47782 13.7998 4.04689 13.7997L3 13.7997V12.1997H4C4.49402 12.1997 4.78406 12.198 4.99067 12.1702C5.07357 12.1591 5.11784 12.1466 5.13898 12.1387C5.14687 12.1176 5.15938 12.0733 5.17052 11.9904C5.1983 11.7838 5.2 11.4937 5.2 10.9997L5.2 7.99971C5.2 7.50569 5.1983 7.21566 5.17052 7.00904C5.15938 6.92615 5.14687 6.88188 5.13898 6.86074C5.11784 6.85285 5.07357 6.84034 4.99067 6.82919ZM10 6.79972C10.494 6.79972 10.7841 6.80141 10.9907 6.82919C11.0736 6.84034 11.1178 6.85285 11.139 6.86074C11.1469 6.88188 11.1594 6.92615 11.1705 7.00904C11.1983 7.21566 11.2 7.50569 11.2 7.99971V10.9997C11.2 11.4937 11.1983 11.7838 11.1705 11.9904C11.1594 12.0733 11.1469 12.1176 11.139 12.1387C11.1178 12.1466 11.0736 12.1591 10.9907 12.1702C10.7841 12.198 10.494 12.1997 10 12.1997H9V13.7997L10.0468 13.7997C10.4778 13.7998 10.8777 13.7998 11.2039 13.756C11.5649 13.7074 11.9529 13.5924 12.2728 13.2725C12.5927 12.9526 12.7077 12.5646 12.7563 12.2036C12.8001 11.8774 12.8001 11.4775 12.8 11.0466V7.95288C12.8001 7.52196 12.8001 7.12205 12.7563 6.79585C12.7077 6.43482 12.5927 6.04678 12.2728 5.72692C11.9529 5.40706 11.5649 5.292 11.2039 5.24346C10.8776 5.1996 10.4778 5.19965 10.0468 5.19971L9 5.19972V6.79972L10 6.79972ZM16.9907 6.82919C16.7841 6.80141 16.494 6.79972 16 6.79972L15 6.79972V5.19972L16.0468 5.19971C16.4778 5.19965 16.8776 5.1996 17.2039 5.24346C17.5649 5.292 17.9529 5.40706 18.2728 5.72692C18.5927 6.04678 18.7077 6.43482 18.7563 6.79585C18.8001 7.12207 18.8001 7.52193 18.8 7.95288V11.0466C18.8001 11.4775 18.8001 11.8774 18.7563 12.2036C18.7077 12.5646 18.5927 12.9526 18.2728 13.2725C17.9529 13.5924 17.5649 13.7074 17.2039 13.756C16.8777 13.7998 16.4778 13.7998 16.0469 13.7997L15 13.7997V12.1997H16C16.494 12.1997 16.7841 12.198 16.9907 12.1702C17.0736 12.1591 17.1178 12.1466 17.139 12.1387C17.1469 12.1176 17.1594 12.0733 17.1705 11.9904C17.1983 11.7838 17.2 11.4937 17.2 10.9997V7.99971C17.2 7.50569 17.1983 7.21566 17.1705 7.00904C17.1594 6.92615 17.1469 6.88188 17.139 6.86074C17.1178 6.85285 17.0736 6.84034 16.9907 6.82919ZM5.99922 17.1997C5.55739 17.1997 5.19922 17.5579 5.19922 17.9997C5.19922 18.4415 5.55739 18.7997 5.99922 18.7997H6.04922C6.49105 18.7997 6.84922 18.4415 6.84922 17.9997C6.84922 17.5579 6.49105 17.1997 6.04922 17.1997H5.99922ZM11.1992 17.9997C11.1992 17.5579 11.5574 17.1997 11.9992 17.1997H12.0492C12.491 17.1997 12.8492 17.5579 12.8492 17.9997C12.8492 18.4415 12.491 18.7997 12.0492 18.7997H11.9992C11.5574 18.7997 11.1992 18.4415 11.1992 17.9997ZM17.9992 17.1997C17.5574 17.1997 17.1992 17.5579 17.1992 17.9997C17.1992 18.4415 17.5574 18.7997 17.9992 18.7997H18.0492C18.491 18.7997 18.8492 18.4415 18.8492 17.9997C18.8492 17.5579 18.491 17.1997 18.0492 17.1997H17.9992Z" fill="currentColor"/>
</svg>
