<svg viewBox="0 0 24 24" fill="none" xmlns="http://www.w3.org/2000/svg">
<path d="M9.96132 7.81639C9.72314 7.83265 9.612 7.86155 9.54195 7.89056C9.24792 8.01236 9.01431 8.24597 8.89252 8.54C8.8635 8.61005 8.8346 8.72118 8.81835 8.95937C8.80161 9.20473 8.80117 9.52233 8.80117 9.99922C8.80117 10.4761 8.80161 10.7937 8.81835 11.0391C8.8346 11.2773 8.8635 11.3884 8.89252 11.4584C9.01431 11.7525 9.24792 11.9861 9.54195 12.1079C9.612 12.1369 9.72314 12.1658 9.96132 12.182C10.2067 12.1988 10.5243 12.1992 11.0012 12.1992H13.0012C13.4781 12.1992 13.7957 12.1988 14.041 12.182C14.2792 12.1658 14.3903 12.1369 14.4604 12.1079C14.7544 11.9861 14.988 11.7525 15.1098 11.4584C15.1388 11.3884 15.1677 11.2773 15.184 11.0391C15.2007 10.7937 15.2012 10.4761 15.2012 9.99922C15.2012 9.52233 15.2007 9.20473 15.184 8.95937C15.1677 8.72118 15.1388 8.61005 15.1098 8.54C14.988 8.24597 14.7544 8.01236 14.4604 7.89056C14.3903 7.86155 14.2792 7.83265 14.041 7.81639C13.7957 7.79965 13.4781 7.79922 13.0012 7.79922H11.0012C10.5243 7.79922 10.2067 7.79965 9.96132 7.81639Z" fill="currentColor"/>
<path fill-rule="evenodd" clip-rule="evenodd" d="M17.0561 2.19922H6.94629C6.05034 2.19919 5.29817 2.19916 4.70004 2.27958C4.0667 2.36473 3.48759 2.55302 3.02128 3.01932C2.55497 3.48563 2.36668 4.06474 2.28153 4.69808C2.20112 5.29622 2.20114 6.04831 2.20117 6.94427V17.0541C2.20114 17.9501 2.20112 18.7022 2.28153 19.3004C2.36668 19.9337 2.55497 20.5128 3.02128 20.9791C3.48759 21.4454 4.0667 21.6337 4.70003 21.7189C5.29818 21.7993 6.0503 21.7993 6.94628 21.7992H17.0561C17.9521 21.7993 18.7042 21.7993 19.3023 21.7189C19.9357 21.6337 20.5148 21.4454 20.9811 20.9791C21.4474 20.5128 21.6357 19.9337 21.7208 19.3004C21.8012 18.7022 21.8012 17.9501 21.8012 17.0541V6.94432C21.8012 6.04834 21.8012 5.29623 21.7208 4.69808C21.6357 4.06474 21.4474 3.48563 20.9811 3.01932C20.5148 2.55302 19.9357 2.36473 19.3023 2.27958C18.7042 2.19916 17.952 2.19919 17.0561 2.19922ZM10.9745 6.19922H13.0278C13.4711 6.19921 13.8436 6.1992 14.1499 6.22011C14.4696 6.24192 14.7752 6.28913 15.0727 6.41236C15.7588 6.69654 16.3039 7.24163 16.588 7.92771C16.7113 8.2252 16.7585 8.53081 16.7803 8.85045C16.8012 9.15679 16.8012 9.52932 16.8012 9.97258V10.0259C16.8012 10.4691 16.8012 10.8416 16.7803 11.148C16.7585 11.4676 16.7113 11.7732 16.588 12.0707C16.3039 12.7568 15.7588 13.3019 15.0727 13.5861C14.7752 13.7093 14.4696 13.7565 14.1499 13.7783C13.8436 13.7992 13.4711 13.7992 13.0278 13.7992H10.9745C10.5313 13.7992 10.1587 13.7992 9.85241 13.7783C9.53276 13.7565 9.22716 13.7093 8.92966 13.5861C8.24358 13.3019 7.69849 12.7568 7.41431 12.0707C7.29108 11.7732 7.24387 11.4676 7.22206 11.148C7.20116 10.8417 7.20116 10.4691 7.20117 10.0259V9.97256C7.20116 9.52931 7.20116 9.15679 7.22206 8.85045C7.24387 8.53081 7.29108 8.2252 7.41431 7.92771C7.69849 7.24163 8.24358 6.69654 8.92966 6.41236C9.22716 6.28913 9.53276 6.24192 9.85241 6.22011C10.1587 6.1992 10.5313 6.19921 10.9745 6.19922ZM5.00078 17.7993C4.33804 17.7993 3.80078 18.3366 3.80078 18.9993C3.80078 19.6621 4.33804 20.1993 5.00078 20.1993H17.0008C17.9662 20.1993 18.6098 20.1976 19.0887 20.1332C19.5446 20.0719 19.7298 19.9673 19.8493 19.8478C19.9688 19.7284 20.0734 19.5432 20.1347 19.0873C20.1794 18.7548 20.1939 18.343 20.1986 17.7993H5.00078Z" fill="currentColor"/>
</svg>
