<svg viewBox="0 0 19 19" fill="none" xmlns="http://www.w3.org/2000/svg">
<path d="M4.85059 2.49844C4.85059 2.16707 4.58196 1.89844 4.25059 1.89844C3.91922 1.89844 3.65059 2.16707 3.65059 2.49844V4.44874C3.64981 4.46739 3.64941 4.48608 3.64941 4.50479V10.3069C3.64941 10.3213 3.64981 10.3355 3.65059 10.3494V15.9984C3.65059 16.3298 3.91922 16.5984 4.25059 16.5984C4.58196 16.5984 4.85059 16.3298 4.85059 15.9984V10.7076C5.5129 10.4001 6.22689 10.2155 6.95745 10.1636C7.78136 10.1051 8.60849 10.2169 9.38695 10.4917C11.3163 11.1802 12.7268 11.2054 14.2099 10.7555C14.4703 10.6765 14.695 10.5313 14.8731 10.3513C15.1782 10.0431 15.3494 9.62688 15.3494 9.19314V3.43393C15.3494 3.17964 15.2193 2.94303 15.0045 2.80688C14.7775 2.66296 14.4979 2.6564 14.2695 2.77175C13.1255 3.3494 11.5622 3.36533 9.55554 2.64693L9.55394 2.64636C8.71379 2.34827 7.82084 2.22677 6.93133 2.28949C6.32364 2.33234 5.45301 2.61775 4.95373 2.79452C4.9188 2.80689 4.88441 2.82022 4.85059 2.83447V2.49844Z" fill="currentColor"/>
</svg>
