<svg viewBox="0 0 24 24" fill="none" xmlns="http://www.w3.org/2000/svg">
<path d="M9 21H15C17.8284 21 19.2426 21 20.1213 20.1213C21 19.2426 21 17.8284 21 15V10C21 8.11438 21 7.17157 20.4142 6.58579C19.8284 6 18.8856 6 17 6H14.8028C14.0882 6 13.7309 6 13.4105 5.888C13.2148 5.81961 13.0309 5.72121 12.8655 5.59633C12.5946 5.39184 12.3964 5.09456 12 4.5C11.6036 3.90544 11.4054 3.60816 11.1345 3.40367C10.9691 3.27879 10.7852 3.18039 10.5895 3.112C10.2691 3 9.91179 3 9.19722 3H8.89627C6.16864 3 4.80482 3 3.93706 3.82186C3.89763 3.85921 3.85921 3.89763 3.82186 3.93706C3 4.80482 3 6.16864 3 8.89627V15C3 17.8284 3 19.2426 3.87868 20.1213C4.75736 21 6.17157 21 9 21Z" fill="currentColor" stroke="currentColor" stroke-width="1.6"/>
</svg>
