<svg  class="w-full h-full" viewBox="0 0 24 24" fill="none" xmlns="https://www.w3.org/2000/svg">
<path d="M10.8546 2.35615C11.1286 2.4519 11.386 2.58966 11.6176 2.76449C11.9995 3.05275 12.27 3.4593 12.6055 3.96354L12.6668 4.05559C13.0949 4.69776 13.2116 4.85376 13.3486 4.95715C13.4479 5.03208 13.5582 5.09112 13.6756 5.13215C13.8376 5.18878 14.0322 5.19935 14.804 5.19935L17.0561 5.19935C17.9521 5.19932 18.7042 5.19929 19.3023 5.27971C19.9357 5.36486 20.5148 5.55314 20.9811 6.01945C21.4474 6.48576 21.6357 7.06487 21.7208 7.69821C21.8012 8.29636 21.8012 9.04847 21.8012 9.94445V13.0592C21.8012 13.1733 21.6443 13.2167 21.581 13.1217C20.4878 11.4804 18.6204 10.3989 16.5004 10.3989C13.1315 10.3989 10.4004 13.13 10.4004 16.4989C10.4004 18.619 11.482 20.4865 13.1234 21.5797C13.2182 21.6428 13.1749 21.7994 13.061 21.7994H8.94303C7.57823 21.7994 6.47307 21.7994 5.60276 21.6824C4.69711 21.5606 3.92692 21.2991 3.31417 20.6864C2.70141 20.0736 2.43991 19.3034 2.31814 18.3978C2.20113 17.5275 2.20115 16.4223 2.20117 15.0575V8.83965C2.20115 7.52341 2.20114 6.45747 2.31058 5.61545C2.42436 4.74011 2.66837 3.99217 3.2422 3.3863C3.28951 3.33634 3.33817 3.28769 3.38812 3.24038C3.99399 2.66655 4.74193 2.42253 5.61727 2.30876C6.4593 2.19931 7.52523 2.19933 8.8415 2.19935L9.30899 2.19928C9.91463 2.19872 10.4029 2.19827 10.8546 2.35615Z" fill="currentColor"/>
<path fill-rule="evenodd" clip-rule="evenodd" d="M16.5012 20.9997C18.9864 20.9997 21.0012 18.9849 21.0012 16.4997C21.0012 14.0144 18.9864 11.9997 16.5012 11.9997C14.0159 11.9997 12.0012 14.0144 12.0012 16.4997C12.0012 18.9849 14.0159 20.9997 16.5012 20.9997ZM16.5019 14.1999C16.9438 14.1999 17.3019 14.558 17.3019 14.9999V15.6999H18.0004C18.4422 15.6999 18.8004 16.058 18.8004 16.4999C18.8004 16.9417 18.4422 17.2999 18.0004 17.2999H17.3019V17.9999C17.3019 18.4417 16.9438 18.7999 16.5019 18.7999C16.0601 18.7999 15.7019 18.4417 15.7019 17.9999V17.2999H15.0004C14.5586 17.2999 14.2004 16.9417 14.2004 16.4999C14.2004 16.058 14.5586 15.6999 15.0004 15.6999H15.7019V14.9999C15.7019 14.558 16.0601 14.1999 16.5019 14.1999Z" fill="currentColor"/>
</svg>
