<svg  class="w-full h-full" viewBox="0 0 24 24" fill="none" xmlns="https://www.w3.org/2000/svg">
<path fill-rule="evenodd" clip-rule="evenodd" d="M20.7993 9.83379V17.0552C20.7993 17.9512 20.7993 18.7033 20.7189 19.3015C20.6338 19.9348 20.4455 20.5139 19.9792 20.9802C19.5129 21.4465 18.9338 21.6348 18.3004 21.72C17.7023 21.8004 16.9501 21.8003 16.0542 21.8003H7.94437C7.04839 21.8003 6.29628 21.8004 5.69813 21.72C5.06479 21.6348 4.48568 21.4465 4.01937 20.9802C3.55306 20.5139 3.36478 19.9348 3.27963 19.3015C3.19921 18.7033 3.19924 17.9512 3.19927 17.0552L3.19927 9.8989L2.45648 10.4097C2.09242 10.66 1.59434 10.5678 1.34401 10.2037C1.09367 9.83968 1.18586 9.34161 1.54992 9.09127L3.55593 7.71189L9.28615 3.89769L9.31617 3.87706C9.83447 3.52096 10.2765 3.21727 10.6675 3.00796C11.0847 2.78455 11.5098 2.63086 11.9993 2.63086C12.4888 2.63086 12.9138 2.78455 13.3311 3.00796C13.7221 3.21728 14.1641 3.52095 14.6824 3.87704L14.7124 3.8977L20.4354 7.70723L22.4672 8.99776C22.8402 9.23465 22.9505 9.72903 22.7136 10.102C22.4767 10.4749 21.9823 10.5852 21.6094 10.3483L20.7993 9.83379ZM12.7992 13.1252C12.7992 12.6834 12.441 12.3252 11.9992 12.3252C11.5574 12.3252 11.1992 12.6834 11.1992 13.1252V16.5002C11.1992 16.942 11.5574 17.3002 11.9992 17.3002C12.441 17.3002 12.7992 16.942 12.7992 16.5002V13.1252Z" fill="currentColor"/>
</svg>
