<svg class="w-full h-full" viewBox="0 0 24 24" fill="none" xmlns="http://www.w3.org/2000/svg">
<path d="M12.1992 5.99922C12.1992 5.55739 12.5574 5.19922 12.9992 5.19922H20.9992C21.441 5.19922 21.7992 5.55739 21.7992 5.99922C21.7992 6.44105 21.441 6.79922 20.9992 6.79922H12.9992C12.5574 6.79922 12.1992 6.44105 12.1992 5.99922Z" fill="currentColor"/>
<path d="M2.19922 11.9992C2.19922 11.5574 2.55739 11.1992 2.99922 11.1992H20.9992C21.441 11.1992 21.7992 11.5574 21.7992 11.9992C21.7992 12.441 21.441 12.7992 20.9992 12.7992H2.99922C2.55739 12.7992 2.19922 12.441 2.19922 11.9992Z" fill="currentColor"/>
<path d="M6.99922 17.1992C6.55739 17.1992 6.19922 17.5574 6.19922 17.9992C6.19922 18.441 6.55739 18.7992 6.99922 18.7992H20.9992C21.441 18.7992 21.7992 18.441 21.7992 17.9992C21.7992 17.5574 21.441 17.1992 20.9992 17.1992H6.99922Z" fill="currentColor"/>
</svg>
