<svg viewBox="0 0 24 24" fill="none" xmlns="http://www.w3.org/2000/svg">
<path d="M15 1.25H9C8.7 1.25133 8.407 1.25933 8.121 1.274C8.0812 1.26352 8.04079 1.2555 8 1.25C7.91041 1.2508 7.82181 1.26879 7.739 1.303C3.213 1.655 1.25 4.011 1.25 9V15C1.25 19.989 3.213 22.345 7.739 22.7C7.82201 22.7332 7.91061 22.7502 8 22.75C8.04079 22.7445 8.0812 22.7365 8.121 22.726C8.406 22.74 8.696 22.75 9 22.75H15C20.432 22.75 22.75 20.433 22.75 15V9C22.75 3.567 20.432 1.25 15 1.25ZM7.25 21.15C3.968 20.736 2.75 18.975 2.75 15.002V9C2.75 5.027 3.968 3.266 7.25 2.852V21.15ZM21.25 15C21.25 19.614 19.614 21.25 15 21.25H9C8.913 21.25 8.835 21.25 8.75 21.244V2.756C8.835 2.756 8.913 2.75 9 2.75H15C19.614 2.75 21.25 4.386 21.25 9V15ZM15.53 9.971L13.5 12L15.529 14.029C15.6007 14.0982 15.6578 14.1809 15.6972 14.2724C15.7365 14.3639 15.7573 14.4623 15.7582 14.5618C15.7591 14.6614 15.7402 14.7602 15.7025 14.8524C15.6648 14.9446 15.6092 15.0283 15.5388 15.0988C15.4684 15.1692 15.3847 15.225 15.2925 15.2627C15.2004 15.3005 15.1016 15.3195 15.0021 15.3187C14.9025 15.3179 14.804 15.2972 14.7125 15.258C14.621 15.2187 14.5382 15.1616 14.469 15.09L11.909 12.53C11.7685 12.3894 11.6897 12.1988 11.6897 12C11.6897 11.8012 11.7685 11.6106 11.909 11.47L14.469 8.91C14.6105 8.77345 14.8 8.69794 14.9967 8.69974C15.1933 8.70154 15.3814 8.78051 15.5204 8.91963C15.6594 9.05875 15.7381 9.2469 15.7398 9.44355C15.7414 9.6402 15.6667 9.82961 15.53 9.971Z" fill="currentColor"/>
</svg>
