<svg  class="w-full h-full" viewBox="0 0 24 24" fill="none" xmlns="https://www.w3.org/2000/svg">
<path d="M15 1.25H9C3.567 1.25 1.25 3.567 1.25 9V15C1.25 20.433 3.567 22.75 9 22.75H15C20.433 22.75 22.75 20.433 22.75 15V9C22.75 3.567 20.433 1.25 15 1.25ZM14.25 21.25H9C4.386 21.25 2.75 19.614 2.75 15V9C2.75 4.386 4.386 2.75 9 2.75H14.25V21.25ZM21.25 15C21.25 19.354 19.791 21.054 15.75 21.232V2.768C19.791 2.946 21.25 4.646 21.25 9V15ZM8.53 8.91L11.09 11.47C11.2305 11.6106 11.3093 11.8012 11.3093 12C11.3093 12.1988 11.2305 12.3894 11.09 12.53L8.53 15.09C8.38848 15.2266 8.199 15.3021 8.00235 15.3003C7.8057 15.2985 7.61763 15.2195 7.47864 15.0804C7.33965 14.9412 7.26086 14.7531 7.25924 14.5565C7.25763 14.3598 7.33331 14.1704 7.47 14.029L9.5 12L7.47 9.971C7.33331 9.82961 7.25763 9.6402 7.25924 9.44355C7.26086 9.2469 7.33965 9.05875 7.47864 8.91963C7.61763 8.78051 7.8057 8.70154 8.00235 8.69974C8.199 8.69794 8.38848 8.77345 8.53 8.91Z" fill="currentColor"/>
</svg>
