<svg  class="w-full h-full" viewBox="0 0 24 24" fill="none" xmlns="https://www.w3.org/2000/svg">
<path d="M16.3984 4.11719C19.0107 4.11719 21.1285 6.23492 21.1285 8.84728C21.1285 10.2984 20.475 11.597 19.4463 12.4646C22.0586 13.6313 23.8792 16.2521 23.8792 19.298C23.8792 19.784 23.4852 20.178 22.9992 20.178C22.5132 20.178 22.1192 19.784 22.1192 19.298C22.1192 16.1389 19.5582 13.5779 16.3991 13.5779C13.24 13.5779 10.679 16.1389 10.679 19.298C10.679 19.784 10.285 20.178 9.79896 20.178C9.31294 20.178 8.91895 19.784 8.91895 19.298C8.91895 17.7782 9.3722 16.3643 10.1509 15.184C10.0214 15.1414 9.89978 15.0681 9.79773 14.964C8.9582 14.1076 7.79089 13.5779 6.49829 13.5779C3.94668 13.5779 1.8782 15.6464 1.8782 18.198C1.8782 18.684 1.4842 19.078 0.99818 19.078C0.51216 19.078 0.118164 18.684 0.118164 18.198C0.118164 15.61 1.65911 13.3818 3.87355 12.3811C3.2487 11.729 2.86476 10.8442 2.86476 9.86982C2.86476 7.86498 4.49 6.23975 6.49483 6.23975C8.49966 6.23975 10.1249 7.86498 10.1249 9.86982C10.1249 10.8432 9.74175 11.7272 9.11803 12.3791C9.84686 12.7077 10.5028 13.169 11.0546 13.7319C11.1118 13.7903 11.1593 13.8547 11.197 13.923C11.8203 13.3196 12.5483 12.8237 13.351 12.465C12.322 11.5974 11.6683 10.2987 11.6683 8.84728C11.6683 6.23492 13.786 4.11719 16.3984 4.11719Z" fill="currentColor"/>
</svg>
