<svg viewBox="0 0 24 24" fill="none" xmlns="http://www.w3.org/2000/svg">
<path d="M12.0004 6.19922C9.90176 6.19922 8.20044 7.90054 8.20044 9.99922C8.20044 12.0979 9.90176 13.7992 12.0004 13.7992C14.0991 13.7992 15.8004 12.0979 15.8004 9.99922C15.8004 7.90054 14.0991 6.19922 12.0004 6.19922Z" fill="currentColor"/>
<path d="M12.0009 15.1992C9.25382 15.1992 6.80999 16.5964 5.74795 18.7129L5.72185 18.7648C5.58145 19.0438 5.41461 19.3754 5.34764 19.7052C5.25881 20.1427 5.34021 20.5484 5.58456 20.9444C5.86422 21.3977 6.26177 21.625 6.7148 21.7221C7.07657 21.7996 7.51256 21.7994 7.93832 21.7992H16.0635C16.4893 21.7994 16.9253 21.7996 17.287 21.7221C17.7401 21.625 18.1376 21.3977 18.4173 20.9444C18.6616 20.5484 18.743 20.1427 18.6542 19.7052C18.5872 19.3754 18.4204 19.0438 18.28 18.7648L18.2539 18.7129C17.1919 16.5964 14.748 15.1992 12.0009 15.1992Z" fill="currentColor"/>
<path fill-rule="evenodd" clip-rule="evenodd" d="M10.9401 2.19922H13.0598C14.8946 2.1992 16.3531 2.19919 17.4956 2.3528C18.6736 2.51117 19.6349 2.84591 20.3941 3.60511C21.1533 4.36431 21.488 5.32557 21.6464 6.50353C21.8 7.64609 21.8 9.10453 21.8 10.9394V13.0591C21.8 14.8939 21.8 16.3523 21.6464 17.4949C21.488 18.6729 21.1533 19.6341 20.3941 20.3933C19.6349 21.1525 18.6736 21.4873 17.4956 21.6456C16.3531 21.7993 14.8946 21.7992 13.0598 21.7992H10.9401C9.10526 21.7992 7.64682 21.7993 6.50427 21.6456C5.3263 21.4873 4.36504 21.1525 3.60584 20.3933C2.84664 19.6341 2.51191 18.6729 2.35353 17.4949C2.19992 16.3523 2.19993 14.8939 2.19995 13.0591V10.9394C2.19993 9.10454 2.19992 7.64609 2.35353 6.50353C2.51191 5.32557 2.84664 4.36431 3.60584 3.60511C4.36504 2.84591 5.3263 2.51117 6.50427 2.3528C7.64683 2.19919 9.10527 2.1992 10.9401 2.19922ZM6.71746 3.93853C5.71692 4.07305 5.14958 4.32411 4.73721 4.73648C4.32484 5.14885 4.07378 5.71619 3.93926 6.71673C3.80165 7.74029 3.79995 9.09099 3.79995 10.9992V12.9992C3.79995 14.9075 3.80165 16.2582 3.93926 17.2817C4.07378 18.2823 4.32484 18.8496 4.73721 19.262C5.14958 19.6743 5.71692 19.9254 6.71746 20.0599C7.74102 20.1975 9.09172 20.1992 11 20.1992H13C14.9082 20.1992 16.2589 20.1975 17.2824 20.0599C18.283 19.9254 18.8503 19.6743 19.2627 19.262C19.6751 18.8496 19.9261 18.2823 20.0606 17.2817C20.1983 16.2582 20.2 14.9075 20.2 12.9992V10.9992C20.2 9.09099 20.1983 7.74029 20.0606 6.71673C19.9261 5.71619 19.6751 5.14885 19.2627 4.73648C18.8503 4.32411 18.283 4.07305 17.2824 3.93853C16.2589 3.80092 14.9082 3.79922 13 3.79922H11C9.09172 3.79922 7.74102 3.80092 6.71746 3.93853Z" fill="currentColor"/>
</svg>
